<svg width="70" height="62" viewBox="0 0 70 62" fill="none" xmlns="http://www.w3.org/2000/svg">
<path d="M35 27.2403C36.1849 27.2403 37.3128 27.4767 38.3838 27.9497C39.4548 28.4226 40.3776 29.0728 41.1523 29.9005C41.9271 30.7281 42.5537 31.6976 43.0322 32.8089C43.5107 33.9203 43.75 35.0908 43.75 36.3204C43.75 37.5736 43.5221 38.7441 43.0664 39.8318C42.6107 40.9195 41.9841 41.8772 41.1865 42.7048C40.389 43.5324 39.4548 44.1827 38.3838 44.6556C37.3128 45.1285 36.1849 45.3768 35 45.4005C33.7923 45.4005 32.6644 45.164 31.6162 44.6911C30.568 44.2182 29.6452 43.5679 28.8477 42.7403C28.0501 41.9127 27.4235 40.955 26.9678 39.8673C26.512 38.7796 26.2728 37.5973 26.25 36.3204C26.25 35.0908 26.4779 33.9203 26.9336 32.8089C27.3893 31.6976 28.016 30.7399 28.8135 29.9359C29.611 29.132 30.5339 28.4817 31.582 27.9851C32.6302 27.4886 33.7695 27.2403 35 27.2403ZM35 40.8604C35.6152 40.8604 36.1849 40.7422 36.709 40.5057C37.2331 40.2693 37.6888 39.95 38.0762 39.5481C38.4635 39.1461 38.7826 38.6613 39.0332 38.0938C39.2839 37.5263 39.3978 36.9352 39.375 36.3204C39.375 35.6819 39.2611 35.0908 39.0332 34.5469C38.8053 34.0031 38.4977 33.5301 38.1104 33.1281C37.723 32.7262 37.2559 32.3951 36.709 32.135C36.1621 31.8749 35.5924 31.7567 35 31.7803C34.3848 31.7803 33.8151 31.8986 33.291 32.135C32.7669 32.3715 32.3112 32.6907 31.9238 33.0927C31.5365 33.4947 31.2174 33.9794 30.9668 34.5469C30.7161 35.1144 30.6022 35.7056 30.625 36.3204C30.625 36.9588 30.7389 37.55 30.9668 38.0938C31.1947 38.6377 31.5023 39.1106 31.8896 39.5126C32.277 39.9146 32.7441 40.2456 33.291 40.5057C33.8379 40.7658 34.4076 40.8841 35 40.8604ZM35 0C38.2129 0 41.3005 0.425629 44.2627 1.27689C47.2249 2.12815 50.0163 3.35774 52.6367 4.96567C55.2572 6.57361 57.6156 8.46529 59.7119 10.6407C61.8083 12.8162 63.6426 15.2754 65.2148 18.0183C66.7871 20.7613 67.9606 23.6461 68.7354 26.6728C69.5101 29.6995 69.9316 32.9153 70 36.3204C70 38.7323 69.7721 41.0969 69.3164 43.4142C68.8607 45.7315 68.1999 47.9897 67.334 50.1888C66.4681 52.3879 65.3971 54.4805 64.1211 56.4668C62.8451 58.4531 61.3867 60.2975 59.7461 62L56.6699 58.8078C58.1055 57.3181 59.3701 55.7101 60.4639 53.984C61.5576 52.2578 62.4919 50.4252 63.2666 48.4863C64.0413 46.5473 64.6224 44.5728 65.0098 42.5629C65.3971 40.553 65.6022 38.4722 65.625 36.3204C65.625 33.3883 65.2604 30.5744 64.5312 27.8787C63.8021 25.1831 62.7767 22.6529 61.4551 20.2883C60.1335 17.9237 58.5384 15.7838 56.6699 13.8684C54.8014 11.9531 52.7393 10.2979 50.4834 8.90275C48.2275 7.50763 45.7894 6.43173 43.1689 5.67506C40.5485 4.91838 37.8255 4.54005 35 4.54005C32.1745 4.54005 29.4629 4.91838 26.8652 5.67506C24.2676 6.43173 21.8294 7.4958 19.5508 8.86728C17.2721 10.2387 15.21 11.894 13.3643 13.833C11.5186 15.7719 9.9235 17.9119 8.5791 20.2529C7.2347 22.5938 6.19792 25.124 5.46875 27.8432C4.73958 30.5625 4.375 33.3883 4.375 36.3204C4.375 38.4249 4.56869 40.4939 4.95605 42.5275C5.34342 44.561 5.92448 46.5473 6.69922 48.4863C7.47396 50.4252 8.4082 52.246 9.50195 53.9485C10.5957 55.651 11.8717 57.2708 13.3301 58.8078L10.2539 62C8.61328 60.2975 7.15495 58.4531 5.87891 56.4668C4.60286 54.4805 3.5319 52.3997 2.66602 50.2243C1.80013 48.0488 1.13932 45.7906 0.683594 43.4497C0.227865 41.1087 0 38.7323 0 36.3204C0 32.9863 0.410156 29.7822 1.23047 26.7082C2.05078 23.6342 3.23568 20.7376 4.78516 18.0183C6.33464 15.299 8.15755 12.8516 10.2539 10.6762C12.3503 8.50076 14.7201 6.59725 17.3633 4.96567C20.0065 3.3341 22.7865 2.11632 25.7031 1.31236C28.6198 0.508391 31.7188 0.0709382 35 0ZM35 13.6201C38.0306 13.6201 40.8675 14.2113 43.5107 15.3936C46.154 16.5759 48.4782 18.1957 50.4834 20.2529C52.4886 22.3101 54.0495 24.7101 55.166 27.4531C56.2826 30.196 56.8522 33.1518 56.875 36.3204C56.875 39.3471 56.3281 42.2437 55.2344 45.0103C54.1406 47.7769 52.557 50.2361 50.4834 52.3879L47.373 49.1602C49.0137 47.4577 50.2783 45.495 51.167 43.2723C52.0557 41.0496 52.5 38.7323 52.5 36.3204C52.5 33.8139 52.0443 31.4611 51.1328 29.262C50.2214 27.0629 48.9681 25.1476 47.373 23.516C45.778 21.8844 43.9209 20.5839 41.8018 19.6144C39.6826 18.6449 37.4154 18.1602 35 18.1602C32.5846 18.1602 30.3174 18.6331 28.1982 19.5789C26.0791 20.5248 24.2334 21.8253 22.6611 23.4805C21.0889 25.1358 19.8356 27.0629 18.9014 29.262C17.9671 31.4611 17.5 33.8139 17.5 36.3204C17.5 38.7323 17.9443 41.0496 18.833 43.2723C19.7217 45.495 20.9863 47.4577 22.627 49.1602L19.5166 52.3879C17.4658 50.2361 15.8936 47.7769 14.7998 45.0103C13.7061 42.2437 13.1478 39.3471 13.125 36.3204C13.125 33.1754 13.6947 30.2315 14.834 27.4886C15.9733 24.7456 17.5342 22.3337 19.5166 20.2529C21.499 18.172 23.8118 16.5522 26.4551 15.3936C29.0983 14.2349 31.9466 13.6438 35 13.6201Z" fill="#F7D750"/>
</svg>
