<svg width="11" height="11" viewBox="0 0 11 11" fill="none" xmlns="http://www.w3.org/2000/svg">
<path fill-rule="evenodd" clip-rule="evenodd" d="M8.48583 1.87644L8.58011 2.15905C8.5875 2.18122 8.59455 2.20317 8.60129 2.22489C8.70465 2.55843 8.73239 2.84302 8.70783 3.07818C8.68511 3.29576 8.61127 3.51876 8.45932 3.67071C8.26406 3.86598 8.19526 3.86598 8 3.67071C7.82138 3.4921 7.65307 3.32804 7.70653 3.01604C7.70875 3.00655 7.71131 2.99276 7.71324 2.9743C7.72111 2.899 7.71756 2.75329 7.64754 2.52555C7.60326 2.39239 7.54978 2.23147 7.53155 2.17638L7.52612 2.15994L7.52396 2.15329L7.52257 2.14891L7.52074 2.14291L7.51866 2.13572C7.5177 2.13226 7.51505 2.12222 7.51344 2.11562C7.50967 2.09841 7.503 1.94432 7.53669 1.81173C7.95358 1.50215 8.43826 1.75953 8.45398 1.79071C8.45805 1.79978 8.46371 1.81328 8.46545 1.81765L8.46868 1.82611C8.47052 1.83106 8.4721 1.83563 8.4721 1.83563C8.47415 1.84152 8.4794 1.85719 8.48583 1.87644Z" fill="#65676B"/>
<path fill-rule="evenodd" clip-rule="evenodd" d="M8.08449 4.22209C7.82699 4.37468 7.54107 4.57849 7.31802 4.77676C6.9227 5.12815 6.38426 5.18083 6.01708 5.18083C5.81993 5.18083 5.6362 5.16495 5.49389 5.1505C5.45043 5.14608 5.42019 5.14282 5.39293 5.13989C5.36651 5.13704 5.34288 5.1345 5.3127 5.13149C5.2886 5.12909 5.26997 5.12743 5.25542 5.12638C5.24284 5.12548 5.23695 5.12532 5.23587 5.12528C5.10799 5.12528 4.99759 5.08631 4.93259 5.05994C4.85868 5.02994 4.78635 4.99193 4.72214 4.95523C4.59766 4.8841 4.46069 4.79278 4.34184 4.71354L4.33348 4.70797C4.27537 4.66923 4.22125 4.6332 4.17097 4.60054C4.14956 4.66594 4.12426 4.7389 4.09581 4.80717C4.04761 4.92284 3.96551 5.0901 3.81802 5.2212C3.71742 5.31062 3.55797 5.45333 3.42389 5.61835C3.2736 5.80333 3.23583 5.91982 3.23583 5.95861V6.01855L2.72167 8.13234C2.6564 8.40066 2.38598 8.56527 2.11766 8.5C1.84934 8.43473 1.68473 8.16431 1.75 7.89599L2.23813 5.88925C2.26289 5.51316 2.48311 5.19043 2.64778 4.98776C2.83231 4.76064 3.03986 4.57495 3.1433 4.483C3.14693 4.47703 3.15745 4.45924 3.17273 4.42255C3.19623 4.36617 3.21562 4.3053 3.24167 4.2235C3.24737 4.20563 3.25338 4.18676 3.25982 4.16672C3.28871 4.07684 3.33506 3.93327 3.40716 3.8115C3.47757 3.69258 3.65587 3.45861 3.98583 3.45861C4.11371 3.45861 4.22408 3.49757 4.28908 3.52395C4.36299 3.55394 4.43531 3.59196 4.49953 3.62866C4.62401 3.69979 4.76097 3.7911 4.87982 3.87034L4.88818 3.87592C5.01743 3.96208 5.12694 4.03479 5.21828 4.08699C5.25229 4.10642 5.27727 4.1192 5.29434 4.12709C5.36486 4.13092 5.45058 4.14017 5.52542 4.14825C5.5501 4.15091 5.57359 4.15344 5.59496 4.15562C5.72609 4.16894 5.87049 4.18083 6.01708 4.18083C6.33741 4.18083 6.54897 4.1224 6.65365 4.02935C6.9306 3.78318 7.38724 3.48542 7.69225 3.30468C7.84501 3.21415 7.88013 3.19072 8.01913 3.13107C8.13795 3.08009 8.31318 3.01417 8.48583 3.01417C8.71899 3.01417 8.98536 3.10568 9.1889 3.19615C9.40497 3.29218 9.64185 3.42832 9.81802 3.58491C10.0244 3.76837 10.043 4.0844 9.85954 4.29079C9.67608 4.49718 9.36004 4.51577 9.15365 4.33232C9.07981 4.26668 8.9417 4.1806 8.78276 4.10996C8.70666 4.07614 8.63545 4.05021 8.57632 4.03349C8.54144 4.02362 8.51712 4.01878 8.50252 4.01641C8.48875 4.02065 8.46002 4.03006 8.41348 4.05004C8.32592 4.08761 8.21297 4.14595 8.08449 4.22209Z" fill="#65676B"/>
<path fill-rule="evenodd" clip-rule="evenodd" d="M7.49402 5.67564C7.70965 5.58794 7.98457 5.5 8.25011 5.5C8.4878 5.5 8.68801 5.59734 8.833 5.69603C8.98124 5.79692 9.11038 5.92535 9.2167 6.04898C9.42912 6.29597 9.60057 6.58289 9.69732 6.77639C9.82082 7.02338 9.72071 7.32372 9.47372 7.44721C9.22673 7.57071 8.92639 7.4706 8.8029 7.22361C8.73298 7.08377 8.60444 6.87069 8.45852 6.70102C8.38567 6.61632 8.32106 6.55724 8.27034 6.52272C8.2524 6.51051 8.23999 6.50391 8.2328 6.50053C8.15987 6.50478 8.03597 6.53477 7.87074 6.60197C7.70255 6.67036 7.53338 6.75985 7.40234 6.83779C7.26699 6.91829 7.12867 6.97671 6.99903 7.02193C6.89786 7.05722 6.80344 7.1019 6.73793 7.14712C6.72843 7.15368 6.72042 7.15964 6.71374 7.16494L6.71399 7.16638C6.71752 7.1868 6.72113 7.2044 6.72609 7.22863C6.72856 7.24068 6.73136 7.25436 6.73465 7.27085C6.74313 7.31326 6.75404 7.37068 6.76061 7.43313C6.77121 7.53382 6.78996 7.64268 6.81827 7.74451C6.82734 7.74679 6.8389 7.7493 6.85338 7.75179C6.91376 7.76217 6.99069 7.76689 7.09933 7.76989C7.11868 7.77042 7.13957 7.7709 7.16159 7.77141C7.24953 7.77344 7.35565 7.77588 7.45514 7.78381C7.72107 7.80499 7.99984 7.89889 8.27747 8.08397C8.50723 8.23715 8.56932 8.54759 8.41614 8.77735C8.26297 9.00711 7.95253 9.0692 7.72277 8.91603C7.57542 8.81779 7.45848 8.78724 7.37574 8.78065C7.3071 8.77518 7.23851 8.77356 7.15501 8.77159C7.12886 8.77097 7.10125 8.77032 7.07172 8.76951C6.95989 8.76642 6.8207 8.76084 6.68395 8.73733C6.54723 8.71383 6.37868 8.66717 6.22332 8.55914C6.05689 8.44343 5.93472 8.27742 5.87137 8.06924C5.81494 7.88379 5.78287 7.69713 5.7661 7.53777C5.7628 7.50642 5.75947 7.49137 5.75382 7.46581C5.74832 7.44098 5.74064 7.40622 5.72864 7.33696C5.71165 7.23877 5.68995 7.07575 5.73665 6.89554C5.81 6.61249 6.01792 6.42904 6.1698 6.32418C6.3334 6.21124 6.51717 6.13092 6.66968 6.07772C6.7565 6.04744 6.82947 6.015 6.89115 5.97832C7.05254 5.88233 7.26743 5.76779 7.49402 5.67564Z" fill="#65676B"/>
<path d="M10.5 5.5C10.5 8.26142 8.26142 10.5 5.5 10.5C2.73858 10.5 0.5 8.26142 0.5 5.5C0.5 2.73858 2.73858 0.5 5.5 0.5C8.26142 0.5 10.5 2.73858 10.5 5.5ZM1.49653 5.5C1.49653 7.71106 3.28894 9.50347 5.5 9.50347C7.71106 9.50347 9.50347 7.71106 9.50347 5.5C9.50347 3.28894 7.71106 1.49653 5.5 1.49653C3.28894 1.49653 1.49653 3.28894 1.49653 5.5Z" fill="#65676B"/>
</svg>
